<svg width="18" height="18" viewBox="0 0 18 18" fill="none" xmlns="http://www.w3.org/2000/svg">
<path d="M14.0025 14.0025L15.6675 13.17V11.085M10.665 7.335L9.00002 8.1675L10.665 7.335ZM9.00002 8.1675L7.33502 7.335L9.00002 8.1675ZM9.00002 8.1675V10.2525V8.1675ZM15.6675 4.83L14.0025 5.6625L15.6675 4.83ZM15.6675 4.83L14.0025 3.9975L15.6675 4.83ZM15.6675 4.83V6.915V4.83ZM10.665 2.3325L9.00002 1.5L7.33502 2.3325H10.665ZM2.33252 4.83L3.99752 3.9975L2.33252 4.83ZM2.33252 4.83L3.99752 5.6625L2.33252 4.83ZM2.33252 4.83V6.915V4.83ZM9.00002 16.5L7.33502 15.6675L9.00002 16.5ZM9.00002 16.5L10.665 15.6675L9.00002 16.5ZM9.00002 16.5V14.415V16.5ZM3.99752 14.0025L2.33252 13.17V11.085L3.99752 14.0025Z" stroke="white" stroke-width="1.5" stroke-linecap="round" stroke-linejoin="round"/>
</svg>
